# This file uses meters as units for non-parametric coordinates.

mtllib Trim_C.mtl
g default
v -200.000000 0.000000 0.000000
v 200.000000 0.000000 0.000000
v 200.000000 50.000000 0.000000
v -200.000000 50.000000 0.000000
v 0.000000 0.000000 0.000000
v 0.000000 50.000000 0.000000
v -100.000000 0.000000 0.000000
v -100.000000 50.000000 0.000000
v 100.000000 0.000000 0.000000
v 100.000000 50.000000 0.000000
v -200.000000 0.000000 9.415526
v -100.000000 0.000000 9.415526
v -100.000000 50.000000 9.415527
v -200.000000 50.000000 9.415527
v 0.000000 0.000000 9.415526
v 0.000000 50.000000 9.415527
v 100.000000 0.000000 9.415526
v 100.000000 50.000000 9.415527
v 200.000000 0.000000 9.415526
v 200.000000 50.000000 9.415527
v -197.712708 4.068450 19.456451
v -102.287277 4.068450 19.456451
v -102.287277 45.931549 19.456451
v -197.712708 45.931549 19.456451
v 2.287283 4.068450 19.456451
v 2.287283 45.931549 19.456451
v 97.712723 4.068450 19.456451
v 97.712723 45.931549 19.456451
v -97.712723 4.068450 19.456451
v -97.712723 45.931549 19.456451
v -2.287283 4.068450 19.456451
v -2.287283 45.931549 19.456451
v 102.287277 4.068450 19.456451
v 102.287277 45.931549 19.456451
v 197.712708 4.068450 19.456451
v 197.712708 45.931549 19.456451
vt 0.000000 0.500000
vt 1.000000 0.500000
vt 1.000000 0.625000
vt 0.000000 0.625000
vt 0.500000 0.500000
vt 0.500000 0.625000
vt 0.250000 0.500000
vt 0.250000 0.625000
vt 0.750000 0.500000
vt 0.750000 0.625000
vt 0.000000 0.500000
vt 0.250000 0.500000
vt 0.250000 0.625000
vt 0.000000 0.625000
vt 0.500000 0.500000
vt 0.750000 0.500000
vt 0.750000 0.625000
vt 0.500000 0.625000
vt 1.000000 0.500000
vt 1.000000 0.625000
vt 0.000000 0.500000
vt 0.250000 0.500000
vt 0.250000 0.625000
vt 0.000000 0.625000
vt 0.500000 0.625000
vt 0.500000 0.500000
vt 0.750000 0.500000
vt 0.750000 0.625000
vt 0.250000 0.625000
vt 0.250000 0.500000
vt 0.500000 0.500000
vt 0.500000 0.625000
vt 0.750000 0.625000
vt 0.750000 0.500000
vt 1.000000 0.500000
vt 1.000000 0.625000
vn 0.000000 0.000000 1.000000
vn 0.000000 0.000000 1.000000
vn 0.000000 0.000000 1.000000
vn 0.000000 0.000000 1.000000
vn 0.000000 0.000000 1.000000
vn 0.000000 0.000000 1.000000
vn 0.000000 0.000000 1.000000
vn 0.000000 0.000000 1.000000
vn 0.000000 0.000000 1.000000
vn 0.000000 0.000000 1.000000
vn 0.000000 0.000000 1.000000
vn 0.000000 0.000000 1.000000
vn 0.000000 0.000000 1.000000
vn 0.000000 0.000000 1.000000
vn 0.000000 0.000000 1.000000
vn 0.000000 0.000000 1.000000
vn 0.000000 -1.000000 0.000000
vn 0.000000 -1.000000 0.000000
vn 0.000000 -1.000000 0.000000
vn 0.000000 -1.000000 0.000000
vn 0.000000 1.000000 0.000000
vn 0.000000 1.000000 0.000000
vn 0.000000 1.000000 0.000000
vn 0.000000 1.000000 0.000000
vn -1.000000 0.000000 0.000000
vn -1.000000 0.000000 0.000000
vn -1.000000 0.000000 0.000000
vn -1.000000 0.000000 0.000000
vn 0.000000 -1.000000 0.000000
vn 0.000000 -1.000000 0.000000
vn 0.000000 -1.000000 0.000000
vn 0.000000 -1.000000 0.000000
vn 0.000000 1.000000 0.000000
vn 0.000000 1.000000 0.000000
vn 0.000000 1.000000 0.000000
vn 0.000000 1.000000 0.000000
vn 0.000000 -1.000000 0.000000
vn 0.000000 -1.000000 0.000000
vn 1.000000 0.000000 0.000000
vn 1.000000 0.000000 0.000000
vn 1.000000 0.000000 0.000000
vn 1.000000 0.000000 0.000000
vn 0.000000 1.000000 0.000000
vn 0.000000 1.000000 0.000000
vn 0.000000 -0.926810 0.375531
vn 0.000000 -0.926810 0.375531
vn 0.000000 -0.926810 0.375531
vn 0.000000 -0.926810 0.375531
vn 0.975023 0.000000 0.222106
vn 0.975023 0.000000 0.222106
vn 0.975023 0.000000 0.222106
vn 0.975023 0.000000 0.222106
vn 0.000000 0.926810 0.375531
vn 0.000000 0.926810 0.375531
vn 0.000000 0.926810 0.375531
vn 0.000000 0.926810 0.375531
vn -0.975022 0.000000 0.222107
vn -0.975022 0.000000 0.222107
vn -0.975022 0.000000 0.222107
vn -0.975022 0.000000 0.222107
vn -0.975022 -0.000000 0.222106
vn -0.975022 -0.000000 0.222106
vn -0.975022 -0.000000 0.222106
vn -0.975022 -0.000000 0.222106
vn 0.000000 -0.926810 0.375531
vn 0.000000 -0.926810 0.375531
vn 0.000000 -0.926810 0.375531
vn 0.000000 -0.926810 0.375531
vn 0.975023 0.000000 0.222106
vn 0.975023 0.000000 0.222106
vn 0.975023 0.000000 0.222106
vn 0.975023 0.000000 0.222106
vn 0.000000 0.926810 0.375531
vn 0.000000 0.926810 0.375531
vn 0.000000 0.926810 0.375531
vn 0.000000 0.926810 0.375531
vn -0.975023 0.000000 0.222106
vn -0.975023 0.000000 0.222106
vn -0.975023 0.000000 0.222106
vn -0.975023 0.000000 0.222106
vn 0.000000 -0.926810 0.375531
vn 0.000000 -0.926810 0.375531
vn 0.000000 -0.926810 0.375531
vn 0.000000 -0.926810 0.375531
vn 0.975022 -0.000000 0.222106
vn 0.975022 -0.000000 0.222106
vn 0.975022 -0.000000 0.222106
vn 0.975022 -0.000000 0.222106
vn 0.000000 0.926810 0.375531
vn 0.000000 0.926810 0.375531
vn 0.000000 0.926810 0.375531
vn 0.000000 0.926810 0.375531
vn -0.975023 0.000000 0.222106
vn -0.975023 0.000000 0.222106
vn -0.975023 0.000000 0.222106
vn -0.975023 0.000000 0.222106
vn 0.000000 -0.926810 0.375531
vn 0.000000 -0.926810 0.375531
vn 0.000000 -0.926810 0.375531
vn 0.000000 -0.926810 0.375531
vn 0.975022 0.000000 0.222107
vn 0.975022 0.000000 0.222107
vn 0.975022 0.000000 0.222107
vn 0.975022 0.000000 0.222107
vn 0.000000 0.926810 0.375531
vn 0.000000 0.926810 0.375531
vn 0.000000 0.926810 0.375531
vn 0.000000 0.926810 0.375532
s off
g Trim_C
usemtl initialShadingGroup
f 21/11/1 22/12/2 23/13/3 24/14/4
f 26/18/5 25/15/6 27/34/7 28/33/8
f 30/13/9 29/12/10 31/15/11 32/18/12
f 34/33/13 33/34/14 35/35/15 36/36/16
s 1
f 1/1/17 7/7/18 12/12/19 11/11/20
s 2
f 8/8/21 4/4/22 14/14/23 13/13/24
s off
f 4/4/25 1/1/26 11/11/27 14/14/28
s 1
f 5/5/29 9/9/30 17/16/31 15/15/32
s 2
f 10/10/33 6/6/34 16/18/35 18/17/36
s 1
f 7/7/18 5/5/29 15/15/32 12/12/19
s 2
f 6/6/34 8/8/21 13/13/24 16/18/35
s 1
f 9/9/30 2/2/37 19/19/38 17/16/31
s off
f 2/2/39 3/3/40 20/20/41 19/19/42
s 2
f 3/3/43 10/10/33 18/17/36 20/20/44
s off
f 11/11/45 12/12/46 22/22/47 21/21/48
f 12/12/49 13/13/50 23/23/51 22/22/52
f 13/13/53 14/14/54 24/24/55 23/23/56
f 14/14/57 11/11/58 21/21/59 24/24/60
f 16/18/61 15/15/62 25/26/63 26/25/64
f 15/15/65 17/16/66 27/27/67 25/26/68
f 17/16/69 18/17/70 28/28/71 27/27/72
f 18/17/73 16/18/74 26/25/75 28/28/76
f 13/13/77 12/12/78 29/30/79 30/29/80
f 12/12/81 15/15/82 31/31/83 29/30/84
f 15/15/85 16/18/86 32/32/87 31/31/88
f 16/18/89 13/13/90 30/29/91 32/32/92
f 18/17/93 17/16/94 33/34/95 34/33/96
f 17/16/97 19/19/98 35/35/99 33/34/100
f 19/19/101 20/20/102 36/36/103 35/35/104
f 20/20/105 18/17/106 34/33/107 36/36/108
