# This file uses meters as units for non-parametric coordinates.

mtllib Trim_B.mtl
g default
v -200.000000 -100.000000 0.000473
v 200.000000 -100.000000 0.000473
v 200.000000 0.000000 0.000471
v -200.000000 0.000000 0.000471
v -200.000000 -90.585419 9.415527
v 200.000000 -90.585419 9.415527
v 200.000000 -9.414586 9.415526
v -200.000000 -9.414586 9.415526
v 0.000000 -100.000000 0.000473
v 0.000000 0.000000 0.000471
v 0.000000 -9.414586 9.415526
v 0.000000 -90.585419 9.415527
v -100.000000 -100.000000 0.000473
v -100.000000 0.000000 0.000471
v -100.000000 -9.414586 9.415526
v -100.000000 -90.585419 9.415527
v 100.000000 -9.414586 9.415526
v 100.000000 0.000000 0.000471
v 100.000000 -100.000000 0.000473
v 100.000000 -90.585419 9.415527
v -200.000000 -50.000000 0.000469
v -200.000000 -50.000000 9.415527
v -100.000000 -50.000000 9.415527
v 0.000000 -50.000000 9.415527
v 100.000000 -50.000000 9.415527
v 200.000000 -50.000000 9.415527
v 200.000000 -50.000000 0.000469
vt 1.000000 0.500000
vt 0.000000 0.250000
vt 1.000000 0.250000
vt 0.000000 0.273536
vt 1.000000 0.476464
vt 0.000000 0.500000
vt 1.000000 0.273536
vt 0.000000 0.476464
vt 0.500000 0.250000
vt 0.500000 0.500000
vt 0.500000 0.476464
vt 0.500000 0.273536
vt 0.250000 0.250000
vt 0.250000 0.500000
vt 0.250000 0.476464
vt 0.250000 0.273536
vt 0.750000 0.476464
vt 0.750000 0.500000
vt 0.750000 0.250000
vt 0.750000 0.273536
vt 0.000000 0.375000
vt 0.000000 0.375000
vt 0.250000 0.375000
vt 0.500000 0.375000
vt 0.750000 0.375000
vt 1.000000 0.375000
vt 1.000000 0.375000
vn 0.000000 0.000000 1.000000
vn 0.000000 0.000000 1.000000
vn 0.000000 0.000000 1.000000
vn 0.000000 0.000000 1.000000
vn 1.000000 -0.000000 0.000000
vn 1.000000 -0.000000 0.000000
vn 1.000000 -0.000000 0.000000
vn 1.000000 -0.000000 0.000000
vn -1.000000 -0.000000 0.000000
vn -1.000000 -0.000000 0.000000
vn -1.000000 -0.000000 0.000000
vn -1.000000 -0.000000 0.000000
vn 0.000000 -0.707125 0.707089
vn 0.000000 -0.707125 0.707089
vn 0.000000 -0.707125 0.707089
vn 0.000000 -0.707125 0.707089
vn 0.000000 0.707124 0.707089
vn 0.000000 0.707124 0.707089
vn 0.000000 0.707124 0.707089
vn 0.000000 0.707124 0.707089
vn 0.000000 0.707124 0.707089
vn 0.000000 0.707124 0.707089
vn 0.000000 0.000000 1.000000
vn 0.000000 0.000000 1.000000
vn 0.000000 -0.707125 0.707089
vn 0.000000 -0.707125 0.707089
vn 0.000000 0.707124 0.707089
vn 0.000000 0.707124 0.707089
vn 0.000000 0.000000 1.000000
vn 0.000000 0.000000 1.000000
vn 0.000000 -0.707125 0.707089
vn 0.000000 -0.707125 0.707089
vn 0.000000 0.707124 0.707089
vn 0.000000 0.707124 0.707089
vn 0.000000 -0.707125 0.707089
vn 0.000000 -0.707125 0.707089
vn 0.000000 0.000000 1.000000
vn 0.000000 0.000000 1.000000
vn -1.000000 0.000000 0.000000
vn -1.000000 0.000000 0.000000
vn 0.000000 0.000000 1.000000
vn 0.000000 0.000000 1.000000
vn 0.000000 0.000000 1.000000
vn 0.000000 0.000000 1.000000
vn 0.000000 0.000000 1.000000
vn 1.000000 0.000000 0.000000
vn 1.000000 0.000000 0.000000
s 1
g Trim_B
usemtl initialShadingGroup
f 11/11/1 24/24/2 25/25/3 17/17/4
s 2
f 26/26/5 27/27/6 3/1/7 7/5/8
s 3
f 4/6/9 21/21/10 22/22/11 8/8/12
s 4
f 12/12/13 9/9/14 19/19/15 20/20/16
s 5
f 17/17/17 18/18/18 10/10/19 11/11/20
f 11/11/20 10/10/19 14/14/21 15/15/22
s 1
f 15/15/23 23/23/24 24/24/2 11/11/1
s 4
f 16/16/25 13/13/26 9/9/14 12/12/13
s 5
f 15/15/22 14/14/21 4/6/27 8/8/28
s 1
f 22/22/29 23/23/24 15/15/23 8/8/30
s 4
f 5/4/31 1/2/32 13/13/26 16/16/25
s 5
f 7/5/33 3/1/34 18/18/18 17/17/17
s 4
f 20/20/16 19/19/15 2/3/35 6/7/36
s 1
f 17/17/4 25/25/3 26/26/37 7/5/38
s 3
f 22/22/11 21/21/10 1/2/39 5/4/40
s 1
f 5/4/41 16/16/42 23/23/24 22/22/29
f 24/24/2 23/23/24 16/16/42 12/12/43
f 25/25/3 24/24/2 12/12/43 20/20/44
f 26/26/37 25/25/3 20/20/44 6/7/45
s 2
f 2/3/46 27/27/6 26/26/5 6/7/47
