# This file uses meters as units for non-parametric coordinates.

mtllib Trim_H.mtl
g default
v -200.000000 200.000000 0.000000
v 200.000000 200.000000 0.000000
v -200.000000 175.000000 0.000000
v 200.000000 175.000000 0.000000
v -200.000000 181.903595 0.000000
v 200.000000 181.903595 0.000000
v -200.000000 176.302338 9.415527
v 200.000000 176.302338 9.415527
v 200.000000 180.000000 9.415527
v -200.000000 180.000000 9.415527
v 0.000000 200.000000 0.000000
v 0.000000 181.903595 0.000000
v 0.000000 180.000000 9.415527
v 0.000000 176.302338 9.415527
v 0.000000 175.000000 0.000000
v -100.000000 200.000000 0.000000
v -100.000000 181.903595 0.000000
v -100.000000 180.000000 9.415527
v -100.000000 176.302338 9.415527
v -100.000000 175.000000 0.000000
v 100.000000 200.000000 0.000000
v 100.000000 181.903595 0.000000
v 100.000000 180.000000 9.415527
v 100.000000 176.302338 9.415527
v 100.000000 175.000000 0.000000
vt 0.000000 0.937500
vt 1.000000 0.937500
vt 1.000000 1.000000
vt 0.000000 1.000000
vt 0.000000 0.950000
vt 1.000000 0.950000
vt 0.000000 0.937500
vt 1.000000 0.937500
vt 1.000000 0.950000
vt 0.000000 0.950000
vt 0.500000 1.000000
vt 0.500000 0.950000
vt 0.500000 0.950000
vt 0.500000 0.937500
vt 0.500000 0.937500
vt 0.250000 1.000000
vt 0.250000 0.950000
vt 0.250000 0.950000
vt 0.250000 0.937500
vt 0.250000 0.937500
vt 0.750000 1.000000
vt 0.750000 0.950000
vt 0.750000 0.950000
vt 0.750000 0.937500
vt 0.750000 0.937500
vn 0.000000 0.000000 1.000000
vn 0.000000 0.000000 1.000000
vn 0.000000 0.000000 1.000000
vn 0.000000 0.000000 1.000000
vn 0.000000 0.000000 1.000000
vn 0.000000 0.000000 1.000000
vn 0.000000 0.000000 1.000000
vn 0.000000 0.000000 1.000000
vn 0.000000 -0.990569 0.137014
vn 0.000000 -0.990569 0.137014
vn 0.000000 -0.990569 0.137014
vn 0.000000 -0.990569 0.137014
vn 1.000000 0.000000 0.000000
vn 1.000000 0.000000 0.000000
vn 1.000000 0.000000 0.000000
vn 1.000000 0.000000 0.000000
vn 0.000000 0.980168 0.198167
vn 0.000000 0.980168 0.198167
vn 0.000000 0.980168 0.198167
vn 0.000000 0.980168 0.198167
vn -1.000000 0.000000 0.000000
vn -1.000000 0.000000 0.000000
vn -1.000000 0.000000 0.000000
vn -1.000000 0.000000 0.000000
vn 0.000000 0.000000 1.000000
vn 0.000000 0.000000 1.000000
vn 0.000000 0.000000 1.000000
vn 0.000000 0.000000 1.000000
vn 0.000000 0.980168 0.198167
vn 0.000000 0.980168 0.198167
vn 0.000000 0.980168 0.198167
vn 0.000000 0.980168 0.198167
vn 0.000000 0.000000 1.000000
vn 0.000000 0.000000 1.000000
vn 0.000000 0.000000 1.000000
vn 0.000000 0.000000 1.000000
vn 0.000000 -0.990569 0.137014
vn 0.000000 -0.990569 0.137014
vn 0.000000 -0.990569 0.137014
vn 0.000000 -0.990569 0.137014
vn 0.000000 0.000000 1.000000
vn 0.000000 0.000000 1.000000
vn 0.000000 0.980168 0.198167
vn 0.000000 0.980168 0.198167
vn 0.000000 0.000000 1.000000
vn 0.000000 0.000000 1.000000
vn 0.000000 -0.990569 0.137014
vn 0.000000 -0.990569 0.137014
s 1
g Trim_H
usemtl initialShadingGroup
f 21/21/1 22/22/2 6/6/3 2/3/4
s 2
f 23/23/5 24/24/6 8/8/7 9/9/8
s 3
f 24/24/9 25/25/10 4/2/11 8/8/12
s off
f 4/2/13 6/6/14 9/9/15 8/8/16
s 4
f 6/6/17 22/22/18 23/23/19 9/9/20
s off
f 5/5/21 3/1/22 7/7/23 10/10/24
s 1
f 16/16/25 17/17/26 12/12/27 11/11/28
s 4
f 13/13/29 12/12/30 17/17/31 18/18/32
s 2
f 18/18/33 19/19/34 14/14/35 13/13/36
s 3
f 19/19/37 20/20/38 15/15/39 14/14/40
s 1
f 5/5/41 17/17/26 16/16/25 1/4/42
s 4
f 18/18/32 17/17/31 5/5/43 10/10/44
s 2
f 7/7/45 19/19/34 18/18/33 10/10/46
s 3
f 3/1/47 20/20/38 19/19/37 7/7/48
s 1
f 11/11/28 12/12/27 22/22/2 21/21/1
s 4
f 23/23/19 22/22/18 12/12/30 13/13/29
s 2
f 13/13/36 14/14/35 24/24/6 23/23/5
s 3
f 14/14/40 15/15/39 25/25/10 24/24/9
