# This file uses meters as units for non-parametric coordinates.

mtllib Trim_E.mtl
g default
v -200.000000 100.000000 0.000000
v 200.000000 100.000000 0.000000
v 200.000000 125.000000 0.000000
v -200.000000 125.000000 0.000000
v -200.000000 116.402534 0.000000
v 200.000000 116.402534 0.000000
v -200.000000 109.134415 0.000000
v 200.000000 109.134415 0.000000
v 200.000000 118.257835 9.415527
v 200.000000 125.000000 9.415527
v -200.000000 125.000000 9.415527
v -200.000000 118.257835 9.415527
v 200.000000 101.382393 9.415527
v 200.000000 107.279114 9.415527
v -200.000000 107.279114 9.415527
v -200.000000 101.382393 9.415527
v 0.000000 100.000000 0.000000
v 0.000000 101.382393 9.415527
v 0.000000 107.279114 9.415527
v 0.000000 109.134415 0.000000
v 0.000000 116.402534 0.000000
v 0.000000 118.257835 9.415527
v 0.000000 125.000000 9.415527
v 0.000000 125.000000 0.000000
v -100.000000 100.000000 0.000000
v -100.000000 101.382393 9.415527
v -100.000000 107.279114 9.415527
v -100.000000 109.134415 0.000000
v -100.000000 116.402534 0.000000
v -100.000000 118.257835 9.415527
v -100.000000 125.000000 9.415527
v -100.000000 125.000000 0.000000
v 100.000000 100.000000 0.000000
v 100.000000 101.382393 9.415527
v 100.000000 107.279114 9.415527
v 100.000000 109.134415 0.000000
v 100.000000 116.402534 0.000000
v 100.000000 118.257835 9.415527
v 100.000000 125.000000 9.415527
v 100.000000 125.000000 0.000000
vt 1.000000 0.750000
vt 1.000000 0.812500
vt 0.000000 0.812500
vt 0.000000 0.750000
vt 0.000000 0.791667
vt 1.000000 0.791667
vt 0.000000 0.770833
vt 1.000000 0.770833
vt 1.000000 0.791667
vt 1.000000 0.812500
vt 0.000000 0.812500
vt 0.000000 0.791667
vt 1.000000 0.750000
vt 1.000000 0.770833
vt 0.000000 0.770833
vt 0.000000 0.750000
vt 0.500000 0.750000
vt 0.500000 0.750000
vt 0.500000 0.770833
vt 0.500000 0.770833
vt 0.500000 0.791667
vt 0.500000 0.791667
vt 0.500000 0.812500
vt 0.500000 0.812500
vt 0.250000 0.750000
vt 0.250000 0.750000
vt 0.250000 0.770833
vt 0.250000 0.770833
vt 0.250000 0.791667
vt 0.250000 0.791667
vt 0.250000 0.812500
vt 0.250000 0.812500
vt 0.750000 0.750000
vt 0.750000 0.750000
vt 0.750000 0.770833
vt 0.750000 0.770833
vt 0.750000 0.791667
vt 0.750000 0.791667
vt 0.750000 0.812500
vt 0.750000 0.812500
vn 0.000000 0.000000 1.000000
vn 0.000000 0.000000 1.000000
vn 0.000000 0.000000 1.000000
vn 0.000000 0.000000 1.000000
vn 0.000000 0.000000 1.000000
vn 0.000000 0.000000 1.000000
vn 0.000000 0.000000 1.000000
vn 0.000000 0.000000 1.000000
vn 0.000000 0.000000 1.000000
vn 0.000000 0.000000 1.000000
vn 0.000000 0.000000 1.000000
vn 0.000000 0.000000 1.000000
vn 1.000000 0.000000 0.000000
vn 1.000000 0.000000 0.000000
vn 1.000000 0.000000 0.000000
vn 1.000000 0.000000 0.000000
vn 0.000000 1.000000 0.000000
vn 0.000000 1.000000 0.000000
vn 0.000000 1.000000 0.000000
vn 0.000000 1.000000 0.000000
vn -1.000000 0.000000 0.000000
vn -1.000000 0.000000 0.000000
vn -1.000000 0.000000 0.000000
vn -1.000000 0.000000 0.000000
vn 0.000000 -0.981134 0.193329
vn 0.000000 -0.981134 0.193329
vn 0.000000 -0.981134 0.193329
vn 0.000000 -0.981134 0.193329
vn 1.000000 0.000000 0.000000
vn 1.000000 0.000000 0.000000
vn 1.000000 0.000000 0.000000
vn 1.000000 0.000000 0.000000
vn 0.000000 0.981134 0.193330
vn 0.000000 0.981134 0.193330
vn 0.000000 0.981134 0.193330
vn 0.000000 0.981134 0.193330
vn -1.000000 0.000000 0.000000
vn -1.000000 0.000000 0.000000
vn -1.000000 0.000000 0.000000
vn -1.000000 0.000000 0.000000
vn 0.000000 -0.989393 0.145263
vn 0.000000 -0.989393 0.145263
vn 0.000000 -0.989393 0.145263
vn 0.000000 -0.989393 0.145263
vn 0.000000 -0.989393 0.145263
vn 0.000000 -0.989393 0.145263
vn 0.000000 -0.989393 0.145263
vn 0.000000 -0.989393 0.145263
vn 0.000000 0.000000 1.000000
vn 0.000000 0.000000 1.000000
vn 0.000000 0.000000 1.000000
vn 0.000000 0.000000 1.000000
vn 0.000000 0.981134 0.193330
vn 0.000000 0.981134 0.193330
vn 0.000000 0.981134 0.193330
vn 0.000000 0.981134 0.193330
vn 0.000000 0.000000 1.000000
vn 0.000000 0.000000 1.000000
vn 0.000000 0.000000 1.000000
vn 0.000000 0.000000 1.000000
vn 0.000000 -0.981134 0.193329
vn 0.000000 -0.981134 0.193329
vn 0.000000 -0.981134 0.193329
vn 0.000000 -0.981134 0.193329
vn 0.000000 0.000000 1.000000
vn 0.000000 0.000000 1.000000
vn 0.000000 0.000000 1.000000
vn 0.000000 0.000000 1.000000
vn 0.000000 1.000000 0.000000
vn 0.000000 1.000000 0.000000
vn 0.000000 1.000000 0.000000
vn 0.000000 1.000000 0.000000
vn 0.000000 -0.989393 0.145263
vn 0.000000 -0.989393 0.145263
vn 0.000000 0.000000 1.000000
vn 0.000000 0.000000 1.000000
vn 0.000000 0.981134 0.193330
vn 0.000000 0.981134 0.193330
vn 0.000000 0.000000 1.000000
vn 0.000000 0.000000 1.000000
vn 0.000000 -0.981134 0.193329
vn 0.000000 -0.981134 0.193329
vn 0.000000 0.000000 1.000000
vn 0.000000 0.000000 1.000000
vn 0.000000 1.000000 0.000000
vn 0.000000 1.000000 0.000000
s 1
g Trim_E
usemtl initialShadingGroup
f 30/30/1 31/31/2 11/11/3 12/12/4
s 2
f 28/28/5 29/29/6 5/5/7 7/7/8
s 3
f 26/26/9 27/27/10 15/15/11 16/16/12
s off
f 6/6/13 3/2/14 10/10/15 9/9/16
s 4
f 31/31/17 32/32/18 4/3/19 11/11/20
s off
f 4/3/21 5/5/22 12/12/23 11/11/24
s 5
f 5/5/25 29/29/26 30/30/27 12/12/28
s off
f 2/1/29 8/8/30 14/14/31 13/13/32
s 6
f 27/27/33 28/28/34 7/7/35 15/15/36
s off
f 7/7/37 1/4/38 16/16/39 15/15/40
s 7
f 1/4/41 25/25/42 26/26/43 16/16/44
f 18/18/45 17/17/46 33/33/47 34/34/48
s 3
f 34/34/49 35/35/50 19/19/51 18/18/52
s 6
f 35/35/53 36/36/54 20/20/55 19/19/56
s 2
f 36/36/57 37/37/58 21/21/59 20/20/60
s 5
f 22/22/61 21/21/62 37/37/63 38/38/64
s 1
f 38/38/65 39/39/66 23/23/67 22/22/68
s 4
f 39/39/69 40/40/70 24/24/71 23/23/72
s 7
f 26/26/43 25/25/42 17/17/46 18/18/45
s 3
f 18/18/52 19/19/51 27/27/10 26/26/9
s 6
f 19/19/56 20/20/55 28/28/34 27/27/33
s 2
f 20/20/60 21/21/59 29/29/6 28/28/5
s 5
f 30/30/27 29/29/26 21/21/62 22/22/61
s 1
f 22/22/68 23/23/67 31/31/2 30/30/1
s 4
f 23/23/72 24/24/71 32/32/18 31/31/17
s 7
f 34/34/48 33/33/47 2/1/73 13/13/74
s 3
f 13/13/75 14/14/76 35/35/50 34/34/49
s 6
f 8/8/77 36/36/54 35/35/53 14/14/78
s 2
f 8/8/79 6/6/80 37/37/58 36/36/57
s 5
f 38/38/64 37/37/63 6/6/81 9/9/82
s 1
f 9/9/83 10/10/84 39/39/66 38/38/65
s 4
f 3/2/85 40/40/70 39/39/69 10/10/86
