# This file uses meters as units for non-parametric coordinates.

mtllib Trim_A.mtl
g default
v -200.000000 -200.000000 0.000000
v -200.000000 -100.000000 0.000000
v 0.000000 -200.000000 0.000000
v 0.000000 -100.000000 0.000000
v -200.000000 -200.000000 4.835072
v -196.777161 -196.777161 8.057916
v -3.222844 -196.777161 8.057916
v 0.000000 -200.000000 4.835072
v -3.222844 -103.222847 8.057916
v 0.000000 -100.000000 4.835072
v -196.777161 -103.222847 8.057916
v -200.000000 -100.000000 4.835072
v -100.000000 -200.000000 0.000000
v -100.000000 -200.000000 4.835072
v -100.000000 -196.777161 8.057916
v -100.000000 -103.222847 8.057916
v -100.000000 -100.000000 4.835072
v -100.000000 -100.000000 0.000000
v -200.000000 -150.000000 0.000000
v -200.000000 -150.000000 4.835072
v -196.777161 -150.000000 8.057916
v -100.000000 -150.000000 8.057916
v -3.222844 -150.000000 8.057916
v 0.000000 -150.000000 4.835072
v 0.000000 -150.000000 0.000000
v -50.000000 -200.000000 0.000000
v -50.000000 -200.000000 4.835072
v -51.611423 -196.777161 8.057916
v -51.611423 -150.000000 8.057916
v -51.611423 -103.222847 8.057916
v -50.000000 -100.000000 4.835072
v -50.000000 -100.000000 0.000000
v -150.000000 -200.000000 0.000000
v -150.000000 -200.000000 4.835072
v -148.388580 -196.777161 8.057916
v -148.388580 -150.000000 8.057916
v -148.388580 -103.222847 8.057916
v -150.000000 -100.000000 4.835072
v -150.000000 -100.000000 0.000000
vt 0.008057 0.241943
vt 0.008057 0.008057
vt 0.491943 0.008057
vt 0.491943 0.241943
vt 0.500000 0.000000
vt 0.000000 0.000000
vt 0.500000 0.250000
vt 0.500000 0.000000
vt 0.000000 0.250000
vt 0.500000 0.250000
vt 0.000000 0.000000
vt 0.000000 0.250000
vt 0.250000 0.000000
vt 0.250000 0.000000
vt 0.250000 0.008057
vt 0.250000 0.241943
vt 0.250000 0.250000
vt 0.250000 0.250000
vt 0.000000 0.125000
vt 0.000000 0.125000
vt 0.008057 0.125000
vt 0.250000 0.125000
vt 0.491943 0.125000
vt 0.500000 0.125000
vt 0.500000 0.125000
vt 0.375000 0.000000
vt 0.375000 0.000000
vt 0.370971 0.008057
vt 0.370971 0.125000
vt 0.370971 0.241943
vt 0.375000 0.250000
vt 0.375000 0.250000
vt 0.125000 0.000000
vt 0.125000 0.000000
vt 0.129029 0.008057
vt 0.129029 0.125000
vt 0.129029 0.241943
vt 0.125000 0.250000
vt 0.125000 0.250000
vn -0.707107 0.000000 0.707106
vn -0.707107 0.000000 0.707106
vn -0.707107 0.000000 0.707106
vn -0.707107 0.000000 0.707106
vn 0.000000 -0.707108 0.707105
vn 0.000000 -0.707108 0.707105
vn 0.000000 -0.707108 0.707105
vn 0.000000 -0.707108 0.707105
vn 0.707107 0.000000 0.707107
vn 0.707107 0.000000 0.707107
vn 0.707107 0.000000 0.707107
vn 0.707107 0.000000 0.707107
vn 0.000000 0.707106 0.707107
vn 0.000000 0.707107 0.707107
vn 0.000000 0.707107 0.707107
vn 0.000000 0.707107 0.707107
vn 0.000000 0.000000 1.000000
vn 0.000000 0.000000 1.000000
vn 0.000000 0.000000 1.000000
vn 0.000000 0.000000 1.000000
vn 0.000000 -1.000000 0.000000
vn 0.000000 -1.000000 0.000000
vn 0.000000 -1.000000 0.000000
vn 0.000000 -1.000000 0.000000
vn 1.000000 0.000000 -0.000000
vn 1.000000 0.000000 -0.000000
vn 1.000000 0.000000 -0.000000
vn 1.000000 0.000000 -0.000000
vn 0.000000 1.000000 0.000000
vn 0.000000 1.000000 0.000000
vn 0.000000 1.000000 0.000000
vn 0.000000 1.000000 0.000000
vn -1.000000 0.000000 0.000000
vn -1.000000 0.000000 0.000000
vn -1.000000 0.000000 0.000000
vn -1.000000 0.000000 0.000000
vn 0.000000 -1.000000 0.000000
vn 0.000000 -1.000000 0.000000
vn 0.000000 -1.000000 0.000000
vn 0.000000 -1.000000 0.000000
vn 0.000000 -0.707108 0.707105
vn 0.000000 -0.707108 0.707105
vn 0.000000 -0.707107 0.707107
vn 0.000000 -0.707107 0.707106
vn 0.000000 0.000000 1.000000
vn 0.000000 0.000000 1.000000
vn 0.000000 0.000000 1.000000
vn 0.000000 0.000000 1.000000
vn 0.000000 0.707106 0.707107
vn 0.000000 0.707107 0.707107
vn 0.000000 0.707106 0.707108
vn 0.000000 0.707106 0.707108
vn 0.000000 1.000000 -0.000000
vn 0.000000 1.000000 -0.000000
vn 0.000000 1.000000 0.000000
vn 0.000000 1.000000 0.000000
vn -1.000000 0.000000 0.000000
vn -1.000000 0.000000 0.000000
vn -0.707107 0.000000 0.707106
vn -0.707107 0.000000 0.707106
vn 0.000000 0.000000 1.000000
vn 0.000000 0.000000 1.000000
vn 0.000000 0.000000 1.000000
vn 0.000000 0.000000 1.000000
vn 0.707107 0.000000 0.707107
vn 0.707107 0.000000 0.707107
vn 1.000000 0.000000 -0.000000
vn 1.000000 0.000000 -0.000000
vn 0.000000 -1.000000 0.000000
vn 0.000000 -1.000000 0.000000
vn 0.000000 -0.707106 0.707108
vn 0.000000 -0.707106 0.707108
vn 0.000000 0.000000 1.000000
vn 0.000000 0.000000 1.000000
vn 0.000000 0.000000 1.000000
vn 0.000000 0.707107 0.707107
vn 0.000000 0.707107 0.707107
vn 0.000000 1.000000 -0.000000
vn 0.000000 1.000000 -0.000000
s 1
g polySurface45 Trim_A
usemtl initialShadingGroup
f 20/20/1 21/21/2 11/1/3 12/12/4
s 2
f 6/2/5 5/6/6 34/34/7 35/35/8
s 3
f 23/23/9 24/24/10 10/10/11 9/4/12
s 4
f 37/37/13 38/38/14 12/12/15 11/1/16
s 5
f 21/21/17 36/36/18 37/37/19 11/1/20
s 6
f 1/11/21 33/33/22 34/34/23 5/6/24
s 7
f 24/24/25 25/25/26 4/7/27 10/10/28
s 8
f 38/38/29 39/39/30 2/9/31 12/12/32
s 9
f 2/9/33 19/19/34 20/20/35 12/12/36
s 6
f 14/14/37 13/13/38 26/26/39 27/27/40
s 2
f 15/15/41 14/14/42 27/27/43 28/28/44
s 5
f 16/16/45 22/22/46 29/29/47 30/30/48
s 4
f 30/30/49 31/31/50 17/17/51 16/16/52
s 8
f 31/31/53 32/32/54 18/18/55 17/17/56
s 9
f 20/20/35 19/19/34 1/11/57 5/6/58
s 1
f 5/6/59 6/2/60 21/21/2 20/20/1
s 5
f 6/2/61 35/35/62 36/36/18 21/21/17
f 28/28/63 29/29/47 22/22/46 15/15/64
s 3
f 7/3/65 8/8/66 24/24/10 23/23/9
s 7
f 3/5/67 25/25/26 24/24/25 8/8/68
s 6
f 27/27/40 26/26/39 3/5/69 8/8/70
s 2
f 28/28/44 27/27/43 8/8/71 7/3/72
s 5
f 23/23/73 29/29/47 28/28/63 7/3/74
f 30/30/48 29/29/47 23/23/73 9/4/75
s 4
f 9/4/76 10/10/77 31/31/50 30/30/49
s 8
f 4/7/78 32/32/54 31/31/53 10/10/79
s 6
f 34/34/23 33/33/22 13/13/38 14/14/37
s 2
f 35/35/8 34/34/7 14/14/42 15/15/41
s 5
f 36/36/18 35/35/62 15/15/64 22/22/46
f 37/37/19 36/36/18 22/22/46 16/16/45
s 4
f 16/16/52 17/17/51 38/38/14 37/37/13
s 8
f 17/17/56 18/18/55 39/39/30 38/38/29
g default
v 200.000000 -200.000000 0.000000
v 200.000000 -100.000000 0.000000
v 0.000000 -200.000000 0.000000
v 0.000000 -100.000000 0.000000
v 3.222844 -196.777161 8.057916
v -0.000000 -200.000000 4.835072
v -0.000000 -100.000000 4.835072
v 3.222844 -103.222847 8.057916
v 196.777161 -196.777161 8.057916
v 200.000000 -200.000000 4.835072
v 196.777161 -103.222847 8.057916
v 200.000000 -100.000000 4.835072
v 100.000000 -200.000000 0.000000
v 100.000000 -200.000000 4.835072
v 100.000000 -196.777161 8.057916
v 100.000000 -103.222847 8.057916
v 100.000000 -100.000000 4.835072
v 100.000000 -100.000000 0.000000
v 200.000000 -150.000000 0.000000
v 200.000000 -150.000000 4.835072
v 196.777161 -150.000000 8.057916
v 100.000000 -150.000000 8.057916
v 3.222844 -150.000000 8.057916
v -0.000000 -150.000000 4.835072
v 0.000000 -150.000000 0.000000
v 150.000000 -200.000000 0.000000
v 150.000000 -200.000000 4.835072
v 148.388580 -196.777161 8.057916
v 148.388580 -150.000000 8.057916
v 148.388580 -103.222847 8.057916
v 150.000000 -100.000000 4.835072
v 150.000000 -100.000000 0.000000
v 50.000000 -200.000000 0.000000
v 50.000000 -200.000000 4.835072
v 51.611423 -196.777161 8.057916
v 51.611423 -150.000000 8.057916
v 51.611423 -103.222847 8.057916
v 50.000000 -100.000000 4.835072
v 50.000000 -100.000000 0.000000
vt 0.508057 0.008057
vt 0.508057 0.241943
vt 0.991943 0.241943
vt 0.991943 0.008057
vt 0.500000 0.000000
vt 0.500000 0.250000
vt 1.000000 0.000000
vt 0.500000 0.000000
vt 1.000000 0.250000
vt 1.000000 0.000000
vt 0.500000 0.250000
vt 1.000000 0.250000
vt 0.750000 0.000000
vt 0.750000 0.000000
vt 0.750000 0.008057
vt 0.750000 0.241943
vt 0.750000 0.250000
vt 0.750000 0.250000
vt 1.000000 0.125000
vt 1.000000 0.125000
vt 0.991943 0.125000
vt 0.750000 0.125000
vt 0.508057 0.125000
vt 0.500000 0.125000
vt 0.500000 0.125000
vt 0.875000 0.000000
vt 0.875000 0.000000
vt 0.870971 0.008057
vt 0.870971 0.125000
vt 0.870971 0.241943
vt 0.875000 0.250000
vt 0.875000 0.250000
vt 0.625000 0.000000
vt 0.625000 0.000000
vt 0.629029 0.008057
vt 0.629029 0.125000
vt 0.629029 0.241943
vt 0.625000 0.250000
vt 0.625000 0.250000
vn 0.000000 -0.707106 0.707108
vn 0.000000 -0.707106 0.707108
vn 0.000000 -0.707107 0.707107
vn 0.000000 -0.707107 0.707106
vn -0.707107 0.000000 0.707107
vn -0.707107 0.000000 0.707107
vn -0.707107 0.000000 0.707107
vn -0.707107 0.000000 0.707107
vn 0.000000 0.707107 0.707107
vn 0.000000 0.707107 0.707107
vn 0.000000 0.707106 0.707107
vn 0.000000 0.707107 0.707107
vn 0.707107 0.000000 0.707106
vn 0.707107 0.000000 0.707106
vn 0.707107 0.000000 0.707106
vn 0.707107 0.000000 0.707106
vn 0.000000 0.000000 1.000000
vn 0.000000 0.000000 1.000000
vn 0.000000 0.000000 1.000000
vn 0.000000 0.000000 1.000000
vn -1.000000 0.000000 -0.000000
vn -1.000000 0.000000 -0.000000
vn -1.000000 0.000000 -0.000000
vn -1.000000 0.000000 -0.000000
vn 0.000000 -1.000000 0.000000
vn 0.000000 -1.000000 0.000000
vn 0.000000 -1.000000 0.000000
vn 0.000000 -1.000000 0.000000
vn 1.000000 0.000000 0.000000
vn 1.000000 0.000000 0.000000
vn 1.000000 0.000000 0.000000
vn 1.000000 0.000000 0.000000
vn 0.000000 1.000000 0.000000
vn 0.000000 1.000000 0.000000
vn 0.000000 1.000000 0.000000
vn 0.000000 1.000000 0.000000
vn 0.000000 -1.000000 0.000000
vn 0.000000 -1.000000 0.000000
vn 0.000000 -1.000000 0.000000
vn 0.000000 -1.000000 0.000000
vn 0.000000 -0.707108 0.707105
vn 0.000000 -0.707108 0.707105
vn 0.000000 -0.707108 0.707105
vn 0.000000 -0.707108 0.707105
vn 0.000000 0.000000 1.000000
vn 0.000000 0.000000 1.000000
vn 0.000000 0.000000 1.000000
vn 0.000000 0.000000 1.000000
vn 0.000000 0.707106 0.707108
vn 0.000000 0.707106 0.707108
vn 0.000000 0.707106 0.707108
vn 0.000000 0.707106 0.707108
vn 0.000000 1.000000 0.000000
vn 0.000000 1.000000 0.000000
vn 0.000000 1.000000 0.000000
vn 0.000000 1.000000 0.000000
vn 1.000000 0.000000 0.000000
vn 1.000000 0.000000 0.000000
vn 0.707107 0.000000 0.707106
vn 0.707107 0.000000 0.707106
vn 0.000000 0.000000 1.000000
vn 0.000000 0.000000 1.000000
vn 0.000000 0.000000 1.000000
vn 0.000000 0.000000 1.000000
vn -0.707107 0.000000 0.707107
vn -0.707107 0.000000 0.707107
vn -1.000000 0.000000 -0.000000
vn -1.000000 0.000000 -0.000000
vn 0.000000 -1.000000 0.000000
vn 0.000000 -1.000000 0.000000
vn 0.000000 -0.707108 0.707105
vn 0.000000 -0.707108 0.707105
vn 0.000000 0.000000 1.000000
vn 0.000000 0.000000 1.000000
vn 0.000000 0.000000 1.000000
vn 0.000000 0.707106 0.707108
vn 0.000000 0.707106 0.707108
vn 0.000000 1.000000 0.000000
vn 0.000000 1.000000 0.000000
s 1
g Trim_A polySurface46
usemtl initialShadingGroup
f 44/40/80 45/47/81 73/73/82 74/74/83
s 2
f 45/47/84 44/40/85 62/62/86 63/63/87
s 3
f 46/45/88 47/41/89 76/76/90 77/77/91
s 4
f 48/43/92 49/49/93 59/59/94 60/60/95
s 5
f 74/74/96 75/75/97 62/62/98 44/40/99
s 6
f 63/63/100 64/64/101 42/44/102 45/47/103
s 7
f 42/44/104 72/72/105 73/73/106 45/47/107
s 8
f 40/46/108 58/58/109 59/59/110 49/49/111
s 9
f 77/77/112 78/78/113 43/50/114 46/45/115
s 7
f 53/53/116 52/52/117 65/65/118 66/66/119
s 1
f 54/54/120 53/53/121 66/66/122 67/67/123
s 5
f 67/67/124 68/68/125 61/61/126 54/54/127
s 3
f 56/56/128 55/55/129 69/69/130 70/70/131
s 9
f 70/70/132 71/71/133 57/57/134 56/56/135
s 8
f 59/59/110 58/58/109 41/48/136 51/51/137
s 4
f 60/60/95 59/59/94 51/51/138 50/42/139
s 5
f 55/55/140 61/61/126 68/68/125 69/69/141
f 47/41/142 62/62/98 75/75/97 76/76/143
s 2
f 63/63/87 62/62/86 47/41/144 46/45/145
s 6
f 43/50/146 64/64/101 63/63/100 46/45/147
s 7
f 66/66/119 65/65/118 40/46/148 49/49/149
s 1
f 67/67/123 66/66/122 49/49/150 48/43/151
s 5
f 60/60/152 68/68/125 67/67/124 48/43/153
f 69/69/141 68/68/125 60/60/152 50/42/154
s 3
f 70/70/131 69/69/130 50/42/155 51/51/156
s 9
f 41/48/157 71/71/133 70/70/132 51/51/158
s 7
f 73/73/106 72/72/105 52/52/117 53/53/116
s 1
f 74/74/83 73/73/82 53/53/121 54/54/120
s 5
f 61/61/126 75/75/97 74/74/96 54/54/127
f 76/76/143 75/75/97 61/61/126 55/55/140
s 3
f 77/77/91 76/76/90 55/55/129 56/56/128
s 9
f 56/56/135 57/57/134 78/78/113 77/77/112
