# This file uses meters as units for non-parametric coordinates.

mtllib Trim_F.mtl
g default
v 200.000000 166.666656 3.016924
v 200.000000 200.000000 3.016924
v -200.000000 200.000000 3.016924
v -200.000000 166.666656 3.016924
v 0.000000 200.000000 3.016924
v 0.000000 166.666656 3.016924
v 100.000000 200.000000 3.016924
v 100.000000 166.666656 3.016924
v 50.000000 200.000000 3.016924
v 50.000000 166.666656 3.016924
v 150.000000 200.000000 3.016924
v 150.000000 166.666656 3.016924
v -100.000000 200.000000 3.016924
v -100.000000 166.666656 3.016924
v -50.000000 200.000000 3.016924
v -50.000000 166.666656 3.016924
v -150.000000 200.000000 3.016924
v -150.000000 166.666656 3.016924
v 200.000000 183.333328 3.016924
v 150.000000 183.333328 3.016924
v 100.000000 183.333328 3.016924
v 50.000000 183.333328 3.016924
v 0.000000 183.333328 3.016924
v -50.000000 183.333328 3.016924
v -100.000000 183.333328 3.016924
v -150.000000 183.333328 3.016924
v -200.000000 183.333328 3.016924
vt 1.000000 0.916667
vt 1.000000 1.000000
vt 0.000000 1.000000
vt 0.000000 0.916667
vt 0.500000 1.000000
vt 0.500000 0.916667
vt 0.750000 1.000000
vt 0.750000 0.916667
vt 0.625000 1.000000
vt 0.625000 0.916667
vt 0.875000 1.000000
vt 0.875000 0.916667
vt 0.250000 1.000000
vt 0.250000 0.916667
vt 0.375000 1.000000
vt 0.375000 0.916667
vt 0.125000 1.000000
vt 0.125000 0.916667
vt 1.000000 0.958333
vt 0.875000 0.958333
vt 0.750000 0.958333
vt 0.625000 0.958333
vt 0.500000 0.958333
vt 0.375000 0.958333
vt 0.250000 0.958333
vt 0.125000 0.958333
vt 0.000000 0.958333
vn 0.000000 0.000000 1.000000
vn 0.000000 0.000000 1.000000
vn 0.000000 0.000000 1.000000
vn 0.000000 0.000000 1.000000
vn 0.000000 0.000000 1.000000
vn 0.000000 0.000000 1.000000
vn 0.000000 0.000000 1.000000
vn 0.000000 0.000000 1.000000
vn 0.000000 0.000000 1.000000
vn 0.000000 0.000000 1.000000
vn 0.000000 0.000000 1.000000
vn 0.000000 0.000000 1.000000
vn 0.000000 0.000000 1.000000
vn 0.000000 0.000000 1.000000
vn 0.000000 0.000000 1.000000
vn 0.000000 0.000000 1.000000
vn 0.000000 0.000000 1.000000
vn 0.000000 0.000000 1.000000
vn 0.000000 0.000000 1.000000
vn 0.000000 0.000000 1.000000
vn 0.000000 0.000000 1.000000
vn 0.000000 0.000000 1.000000
vn 0.000000 0.000000 1.000000
vn 0.000000 0.000000 1.000000
vn 0.000000 0.000000 1.000000
vn 0.000000 0.000000 1.000000
vn 0.000000 0.000000 1.000000
s 1
g Trim_F
usemtl initialShadingGroup
f 1/1/1 19/19/2 20/20/3 12/12/4
f 6/6/5 23/23/6 24/24/7 16/16/8
f 8/8/9 21/21/10 22/22/11 10/10/12
f 10/10/12 22/22/11 23/23/6 6/6/5
f 12/12/4 20/20/3 21/21/10 8/8/9
f 14/14/13 25/25/14 26/26/15 18/18/16
f 16/16/8 24/24/7 25/25/14 14/14/13
f 18/18/16 26/26/15 27/27/17 4/4/18
f 20/20/3 19/19/2 2/2/19 11/11/20
f 21/21/10 20/20/3 11/11/20 7/7/21
f 22/22/11 21/21/10 7/7/21 9/9/22
f 23/23/6 22/22/11 9/9/22 5/5/23
f 24/24/7 23/23/6 5/5/23 15/15/24
f 25/25/14 24/24/7 15/15/24 13/13/25
f 26/26/15 25/25/14 13/13/25 17/17/26
f 27/27/17 26/26/15 17/17/26 3/3/27
