# This file uses meters as units for non-parametric coordinates.

mtllib Trim_C.mtl
g default
v -200.000000 0.000000 0.000000
v 200.000000 0.000000 0.000000
v 200.000000 100.000000 0.000000
v -200.000000 100.000000 0.000000
v 196.777161 0.000000 8.057916
v 200.000000 0.000000 4.835072
v 196.777161 100.000000 8.057916
v 200.000000 100.000000 4.835072
v -200.000000 0.000000 4.835072
v -196.777161 0.000000 8.057916
v -196.777161 100.000000 8.057916
v -200.000000 100.000000 4.835072
v 0.000000 0.000000 8.057916
v 0.000000 100.000000 8.057916
v -200.000000 50.000000 0.000000
v -200.000000 50.000000 4.835072
v -196.777161 50.000000 8.057916
v 0.000000 50.000000 8.057916
v 196.777161 50.000000 8.057916
v 200.000000 50.000000 4.835072
v 200.000000 50.000000 0.000000
v 98.388580 0.000000 8.057916
v 98.388580 50.000000 8.057916
v 98.388580 100.000000 8.057916
v -98.388580 0.000000 8.057916
v -98.388580 50.000000 8.057916
v -98.388580 100.000000 8.057916
v -147.582870 0.000000 8.057916
v -147.582870 50.000000 8.057916
v -147.582870 100.000000 8.057916
v -49.194290 0.000000 8.057916
v -49.194290 50.000000 8.057916
v -49.194290 100.000000 8.057916
v 49.194290 0.000000 8.057916
v 49.194290 50.000000 8.057916
v 49.194290 100.000000 8.057916
v 147.582870 0.000000 8.057916
v 147.582870 50.000000 8.057916
v 147.582870 100.000000 8.057916
vt 1.000000 0.500000
vt 0.000000 0.750000
vt 1.000000 0.750000
vt 1.000000 0.750000
vt 0.000000 0.500000
vt 0.000000 0.500000
vt 0.008057 0.750000
vt 0.991943 0.500000
vt 1.000000 0.500000
vt 0.991943 0.750000
vt 0.008057 0.500000
vt 0.000000 0.750000
vt 0.500000 0.500000
vt 0.500000 0.750000
vt 0.000000 0.625000
vt 0.000000 0.625000
vt 0.008057 0.625000
vt 0.500000 0.625000
vt 0.991943 0.625000
vt 1.000000 0.625000
vt 1.000000 0.625000
vt 0.745971 0.500000
vt 0.745971 0.625000
vt 0.745971 0.750000
vt 0.254029 0.500000
vt 0.254029 0.625000
vt 0.254029 0.750000
vt 0.131043 0.500000
vt 0.131043 0.625000
vt 0.131043 0.750000
vt 0.377014 0.500000
vt 0.377014 0.625000
vt 0.377014 0.750000
vt 0.622986 0.500000
vt 0.622986 0.625000
vt 0.622986 0.750000
vt 0.868957 0.500000
vt 0.868957 0.625000
vt 0.868957 0.750000
vn 0.000000 0.000000 1.000000
vn 0.000000 0.000000 1.000000
vn 0.000000 0.000000 1.000000
vn 0.000000 0.000000 1.000000
vn 0.000000 -1.000000 0.000000
vn 0.000000 -1.000000 0.000000
vn 0.000000 -1.000000 0.000000
vn 0.000000 -1.000000 0.000000
vn 0.000000 -1.000000 0.000000
vn 0.000000 -1.000000 0.000000
vn 0.000000 -1.000000 0.000000
vn 0.000000 -1.000000 0.000000
vn 0.000000 -1.000000 0.000000
vn 0.000000 -1.000000 0.000000
vn 0.000000 -1.000000 0.000000
vn 0.000000 -1.000000 0.000000
vn 0.000000 -1.000000 0.000000
vn 1.000000 0.000000 0.000000
vn 1.000000 0.000000 0.000000
vn 1.000000 0.000000 0.000000
vn 1.000000 0.000000 0.000000
vn 0.000000 1.000000 -0.000002
vn 0.000000 1.000000 -0.000002
vn 0.000000 1.000000 -0.000002
vn 0.000000 1.000000 -0.000002
vn 0.000000 1.000000 -0.000002
vn 0.000000 1.000000 -0.000002
vn 0.000000 1.000000 -0.000002
vn 0.000000 1.000000 -0.000002
vn 0.000000 1.000000 -0.000002
vn 0.000000 1.000000 -0.000002
vn 0.000000 1.000000 -0.000002
vn 0.000000 1.000000 -0.000002
vn 0.000000 1.000000 -0.000002
vn -1.000000 0.000000 0.000000
vn -1.000000 0.000000 0.000000
vn -1.000000 0.000000 0.000000
vn -1.000000 0.000000 0.000000
vn 0.707107 0.000000 0.707106
vn 0.707107 0.000000 0.707106
vn 0.707107 0.000000 0.707106
vn 0.707107 0.000000 0.707106
vn -0.707107 0.000000 0.707106
vn -0.707107 0.000000 0.707106
vn -0.707107 0.000000 0.707106
vn -0.707107 0.000000 0.707106
vn 0.000000 0.000000 1.000000
vn 0.000000 0.000000 1.000000
vn 0.000000 0.000000 1.000000
vn 0.000000 0.000000 1.000000
vn -1.000000 0.000000 0.000000
vn -1.000000 0.000000 0.000000
vn -0.707107 0.000000 0.707106
vn -0.707107 0.000000 0.707106
vn 0.000000 0.000000 1.000000
vn 0.000000 0.000000 1.000000
vn 0.000000 0.000000 1.000000
vn 0.000000 0.000000 1.000000
vn 0.707107 0.000000 0.707106
vn 0.707107 0.000000 0.707106
vn 1.000000 0.000000 0.000000
vn 1.000000 0.000000 0.000000
vn 0.000000 0.000000 1.000000
vn 0.000000 0.000000 1.000000
vn 0.000000 0.000000 1.000000
vn 0.000000 0.000000 1.000000
vn 0.000000 0.000000 1.000000
vn 0.000000 0.000000 1.000000
vn 0.000000 0.000000 1.000000
vn 0.000000 0.000000 1.000000
vn 0.000000 0.000000 1.000000
vn 0.000000 0.000000 1.000000
vn 0.000000 0.000000 1.000000
vn 0.000000 0.000000 1.000000
vn 0.000000 0.000000 1.000000
vn 0.000000 0.000000 1.000000
vn 0.000000 0.000000 1.000000
s 1
g Trim_C
usemtl initialShadingGroup
f 11/7/1 17/17/2 29/29/3 30/30/4
s off
f 1/5/5 2/1/6 6/9/7 5/8/8 37/37/9 22/22/10 34/34/11 13/13/12 31/31/13 25/25/14 28/28/15 10/11/16 9/6/17
s 2
f 20/20/18 21/21/19 3/3/20 8/4/21
s off
f 3/3/22 4/2/23 12/12/24 11/7/25 30/30/26 27/27/27 33/33/28 14/14/29 36/36/30 24/24/31 39/39/32 7/10/33 8/4/34
s 3
f 4/2/35 15/15/36 16/16/37 12/12/38
s 4
f 19/19/39 20/20/40 8/4/41 7/10/42
s 5
f 16/16/43 17/17/44 11/7/45 12/12/46
s 1
f 14/14/47 18/18/48 35/35/49 36/36/50
s 3
f 16/16/37 15/15/36 1/5/51 9/6/52
s 5
f 9/6/53 10/11/54 17/17/44 16/16/43
s 1
f 28/28/55 29/29/3 17/17/2 10/11/56
f 34/34/57 35/35/49 18/18/48 13/13/58
s 4
f 5/8/59 6/9/60 20/20/40 19/19/39
s 2
f 2/1/61 21/21/19 20/20/18 6/9/62
s 1
f 37/37/63 38/38/64 23/23/65 22/22/66
f 24/24/67 23/23/65 38/38/64 39/39/68
f 31/31/69 32/32/70 26/26/71 25/25/72
f 27/27/73 26/26/71 32/32/70 33/33/74
f 25/25/72 26/26/71 29/29/3 28/28/55
f 30/30/4 29/29/3 26/26/71 27/27/73
f 18/18/48 32/32/70 31/31/69 13/13/58
f 33/33/74 32/32/70 18/18/48 14/14/47
f 22/22/66 23/23/65 35/35/49 34/34/57
f 36/36/50 35/35/49 23/23/65 24/24/67
f 19/19/75 38/38/64 37/37/63 5/8/76
f 39/39/68 38/38/64 19/19/75 7/10/77
