# This file uses meters as units for non-parametric coordinates.

mtllib Trim_C.mtl
g default
v 195.316574 0.000000 4.683424
v 200.000000 0.000000 0.000000
v 195.316574 100.000000 4.683424
v 200.000000 100.000000 0.000000
v -200.000000 0.000000 0.000000
v -195.316574 0.000000 4.683424
v -195.316574 100.000000 4.683424
v -200.000000 100.000000 0.000000
v 0.000000 0.000000 4.683424
v 0.000000 100.000000 4.683424
v -97.658287 0.000000 4.683424
v -97.658287 100.000000 4.683424
v 97.658287 0.000000 4.683424
v 97.658287 100.000000 4.683424
v 146.487427 0.000000 4.683424
v 146.487427 100.000000 4.683424
v 48.829144 0.000000 4.683424
v 48.829144 100.000000 4.683424
v -48.829144 0.000000 4.683424
v -48.829144 100.000000 4.683424
v -146.487427 0.000000 4.683424
v -146.487427 100.000000 4.683424
v -200.000000 50.000000 0.000000
v -195.316574 50.000000 4.683424
v -146.487427 50.000000 4.683424
v -97.658287 50.000000 4.683424
v -48.829144 50.000000 4.683424
v 0.000000 50.000000 4.683424
v 48.829144 50.000000 4.683424
v 97.658287 50.000000 4.683424
v 146.487427 50.000000 4.683424
v 195.316574 50.000000 4.683424
v 200.000000 50.000000 0.000000
v -195.316574 0.000000 0.000000
v -146.487427 0.000000 0.000000
v -195.316574 100.000000 0.000000
v -146.487427 100.000000 0.000000
v 0.000000 0.000000 0.000000
v 48.829144 0.000000 0.000000
v 0.000000 100.000000 0.000000
v 48.829144 100.000000 0.000000
v -97.658287 0.000000 0.000000
v -48.829144 0.000000 0.000000
v -97.658287 100.000000 0.000000
v -48.829144 100.000000 0.000000
v 97.658287 0.000000 0.000000
v 146.487427 0.000000 0.000000
v 97.658287 100.000000 0.000000
v 146.487427 100.000000 0.000000
v 195.316574 0.000000 0.000000
v 195.316574 100.000000 0.000000
vt 1.000000 0.750000
vt 0.000000 0.500000
vt 0.011708 0.750000
vt 0.988292 0.500000
vt 1.000000 0.500000
vt 0.988291 0.750000
vt 0.011709 0.500000
vt 0.000000 0.750000
vt 0.500000 0.500000
vt 0.500000 0.750000
vt 0.255854 0.500000
vt 0.255854 0.750000
vt 0.744146 0.500000
vt 0.744146 0.750000
vt 0.866219 0.500000
vt 0.866219 0.750000
vt 0.622073 0.500000
vt 0.622073 0.750000
vt 0.377927 0.500000
vt 0.377927 0.750000
vt 0.133781 0.500000
vt 0.133781 0.750000
vt 0.000000 0.625000
vt 0.011709 0.625000
vt 0.133781 0.625000
vt 0.255854 0.625000
vt 0.377927 0.625000
vt 0.500000 0.625000
vt 0.622073 0.625000
vt 0.744146 0.625000
vt 0.866219 0.625000
vt 0.988292 0.625000
vt 1.000000 0.625000
vt 0.000000 0.000000
vt 1.000000 0.000000
vt 1.000000 1.000000
vt 0.000000 1.000000
vt 0.000000 0.000000
vt 1.000000 0.000000
vt 1.000000 1.000000
vt 0.000000 1.000000
vt 0.000000 0.000000
vt 1.000000 0.000000
vt 1.000000 1.000000
vt 0.000000 1.000000
vt 0.000000 0.000000
vt 1.000000 0.000000
vt 1.000000 1.000000
vt 0.000000 1.000000
vt 0.000000 0.000000
vt 1.000000 0.000000
vt 1.000000 1.000000
vt 0.000000 1.000000
vt 0.000000 0.000000
vt 1.000000 0.000000
vt 1.000000 1.000000
vt 0.000000 1.000000
vt 0.000000 0.000000
vt 1.000000 0.000000
vt 1.000000 1.000000
vt 0.000000 1.000000
vt 0.000000 0.000000
vt 1.000000 0.000000
vt 1.000000 1.000000
vt 0.000000 1.000000
vt 0.000000 0.000000
vt 1.000000 0.000000
vt 1.000000 1.000000
vt 0.000000 1.000000
vt 0.000000 0.000000
vt 1.000000 0.000000
vt 1.000000 1.000000
vt 0.000000 1.000000
vt 0.000000 0.000000
vt 1.000000 0.000000
vt 1.000000 1.000000
vt 0.000000 1.000000
vt 0.000000 0.000000
vt 1.000000 0.000000
vt 1.000000 1.000000
vt 0.000000 1.000000
vt 0.000000 0.000000
vt 1.000000 0.000000
vt 1.000000 1.000000
vt 0.000000 1.000000
vt 0.000000 0.000000
vt 1.000000 0.000000
vt 1.000000 1.000000
vt 0.000000 1.000000
vt 0.000000 0.000000
vt 1.000000 0.000000
vt 1.000000 1.000000
vt 0.000000 1.000000
vt 0.000000 0.000000
vt 1.000000 0.000000
vt 1.000000 1.000000
vt 0.000000 1.000000
vt 0.000000 0.000000
vt 1.000000 0.000000
vt 0.500000 1.000000
vt 0.000000 0.000000
vt 1.000000 0.000000
vt 0.500000 1.000000
vt 0.000000 0.000000
vt 1.000000 0.000000
vt 0.500000 1.000000
vt 0.000000 0.000000
vt 1.000000 0.000000
vt 0.500000 1.000000
vn 0.000000 0.000000 1.000000
vn 0.000000 0.000000 1.000000
vn 0.000000 0.000000 1.000000
vn 0.000000 0.000000 1.000000
vn 0.707107 0.000000 0.707107
vn 0.707107 0.000000 0.707107
vn 0.707107 0.000000 0.707107
vn 0.707107 0.000000 0.707107
vn -0.707107 0.000000 0.707107
vn -0.707107 0.000000 0.707107
vn -0.707107 0.000000 0.707107
vn -0.707107 0.000000 0.707107
vn 0.000000 0.000000 1.000000
vn 0.000000 0.000000 1.000000
vn 0.000000 0.000000 1.000000
vn 0.000000 0.000000 1.000000
vn 0.000000 0.000000 1.000000
vn 0.000000 0.000000 1.000000
vn 0.000000 0.000000 1.000000
vn 0.000000 0.000000 1.000000
vn 0.000000 0.000000 1.000000
vn 0.000000 0.000000 1.000000
vn 0.000000 0.000000 1.000000
vn 0.000000 0.000000 1.000000
vn 0.000000 0.000000 1.000000
vn 0.000000 0.000000 1.000000
vn -0.707107 0.000000 0.707107
vn -0.707107 0.000000 0.707107
vn 0.000000 0.000000 1.000000
vn 0.000000 0.000000 1.000000
vn 0.000000 0.000000 1.000000
vn 0.000000 0.000000 1.000000
vn 0.000000 0.000000 1.000000
vn 0.000000 0.000000 1.000000
vn 0.000000 0.000000 1.000000
vn 0.000000 0.000000 1.000000
vn 0.000000 0.000000 1.000000
vn 0.707107 0.000000 0.707107
vn 0.707107 0.000000 0.707107
vn 0.000000 -1.000000 0.000000
vn 0.000000 -1.000000 0.000000
vn 0.000000 -1.000000 0.000000
vn 0.000000 -1.000000 0.000000
vn 0.000000 1.000000 0.000000
vn 0.000000 1.000000 0.000000
vn 0.000000 1.000000 0.000000
vn 0.000000 1.000000 0.000000
vn 0.000000 -1.000000 0.000000
vn 0.000000 -1.000000 0.000000
vn 0.000000 -1.000000 0.000000
vn 0.000000 -1.000000 0.000000
vn 0.000000 1.000000 0.000000
vn 0.000000 1.000000 0.000000
vn 0.000000 1.000000 0.000000
vn 0.000000 1.000000 0.000000
vn 0.000000 -1.000000 0.000000
vn 0.000000 -1.000000 0.000000
vn 0.000000 -1.000000 0.000000
vn 0.000000 -1.000000 0.000000
vn 0.000000 1.000000 0.000000
vn 0.000000 1.000000 0.000000
vn 0.000000 1.000000 0.000000
vn 0.000000 1.000000 0.000000
vn 0.000000 -1.000000 0.000000
vn 0.000000 -1.000000 0.000000
vn 0.000000 -1.000000 0.000000
vn 0.000000 -1.000000 0.000000
vn 0.000000 1.000000 0.000000
vn 0.000000 1.000000 0.000000
vn 0.000000 1.000000 0.000000
vn 0.000000 1.000000 0.000000
vn -0.000000 -1.000000 0.000000
vn 0.000000 -1.000000 0.000000
vn 0.000000 -1.000000 0.000000
vn -0.000000 -1.000000 0.000000
vn 0.000000 1.000000 0.000000
vn 0.000000 1.000000 0.000000
vn 0.000000 1.000000 0.000000
vn 0.000000 1.000000 0.000000
vn 0.000000 -1.000000 0.000000
vn 0.000000 -1.000000 0.000000
vn 0.000000 -1.000000 0.000000
vn 0.000000 -1.000000 0.000000
vn 0.000000 1.000000 0.000000
vn 0.000000 1.000000 0.000000
vn 0.000000 1.000000 0.000000
vn 0.000000 1.000000 0.000000
vn 0.000000 -1.000000 0.000000
vn 0.000000 -1.000000 0.000000
vn 0.000000 -1.000000 0.000000
vn 0.000000 -1.000000 0.000000
vn 0.000000 1.000000 0.000000
vn 0.000000 1.000000 0.000000
vn 0.000000 1.000000 0.000000
vn 0.000000 1.000000 0.000000
vn 0.000000 -1.000000 0.000000
vn 0.000000 -1.000000 0.000000
vn 0.000000 -1.000000 0.000000
vn 0.000000 -1.000000 0.000000
vn 0.000000 1.000000 0.000000
vn 0.000000 1.000000 0.000000
vn 0.000000 1.000000 0.000000
vn 0.000000 1.000000 0.000000
vn 0.000000 -1.000000 0.000000
vn 0.000000 -1.000000 0.000000
vn 0.000000 -1.000000 0.000000
vn 0.000000 1.000000 0.000000
vn 0.000000 1.000000 0.000000
vn 0.000000 1.000000 0.000000
vn -0.000000 -1.000000 0.000000
vn 0.000000 1.000000 0.000000
s 1
g Trim_C
usemtl initialShadingGroup
f 7/3/1 24/24/2 25/25/3 22/22/4
s 2
f 32/32/5 33/33/6 4/1/7 3/6/8
s 3
f 23/23/9 24/24/10 7/3/11 8/8/12
s 1
f 10/10/13 28/28/14 29/29/15 18/18/16
f 12/12/17 26/26/18 27/27/19 20/20/20
f 14/14/21 30/30/22 31/31/23 16/16/24
f 16/16/24 31/31/23 32/32/25 3/6/26
f 18/18/16 29/29/15 30/30/22 14/14/21
f 20/20/20 27/27/19 28/28/14 10/10/13
f 22/22/4 25/25/3 26/26/18 12/12/17
s 3
f 5/2/27 6/7/28 24/24/10 23/23/9
s 1
f 25/25/3 24/24/2 6/7/29 21/21/30
f 26/26/18 25/25/3 21/21/30 11/11/31
f 27/27/19 26/26/18 11/11/31 19/19/32
f 28/28/14 27/27/19 19/19/32 9/9/33
f 29/29/15 28/28/14 9/9/33 17/17/34
f 30/30/22 29/29/15 17/17/34 13/13/35
f 31/31/23 30/30/22 13/13/35 15/15/36
f 32/32/25 31/31/23 15/15/36 1/4/37
s 2
f 1/4/38 2/5/39 33/33/6 32/32/5
s off
f 21/34/40 6/35/41 34/36/42 35/37/43
f 7/38/44 22/39/45 37/40/46 36/41/47
f 17/42/48 9/43/49 38/44/50 39/45/51
f 10/46/52 18/47/53 41/48/54 40/49/55
f 19/50/56 11/51/57 42/52/58 43/53/59
f 12/54/60 20/55/61 45/56/62 44/57/63
f 15/58/64 13/59/65 46/60/66 47/61/67
f 14/62/68 16/63/69 49/64/70 48/65/71
s 5
f 1/66/72 15/67/73 47/68/74 50/69/75
s 6
f 16/70/76 3/71/77 51/72/78 49/73/79
s off
f 13/74/80 17/75/81 39/76/82 46/77/83
f 18/78/84 14/79/85 48/80/86 41/81/87
f 9/82/88 19/83/89 43/84/90 38/85/91
f 20/86/92 10/87/93 40/88/94 45/89/95
f 11/90/96 21/91/97 35/92/98 42/93/99
f 22/94/100 12/95/101 44/96/102 37/97/103
f 34/98/104 6/99/105 5/100/106
f 7/101/107 36/102/108 8/103/109
s 5
f 1/104/72 50/105/75 2/106/110
s 6
f 51/107/78 3/108/77 4/109/111
