# This file uses meters as units for non-parametric coordinates.

mtllib Trim_E.mtl
g default
v 200.000000 133.333328 0.000000
v 200.000000 166.666656 0.000000
v 133.333313 166.666656 0.000000
v 133.333313 133.333328 0.000000
v 133.333313 133.333328 6.446494
v 134.944733 134.944748 8.057916
v 198.388580 134.944748 8.057916
v 200.000000 133.333328 6.446494
v 198.388580 165.055237 8.057916
v 200.000000 166.666656 6.446494
v 134.944733 165.055237 8.057916
v 133.333313 166.666656 6.446494
v 166.666656 166.666656 0.000000
v 166.666656 166.666656 6.446494
v 166.666656 165.055237 8.057916
v 166.666656 134.944748 8.057916
v 166.666656 133.333328 6.446494
v 166.666656 133.333328 0.000000
vt 0.837362 0.912638
vt 0.837362 0.837362
vt 0.995971 0.837362
vt 0.995971 0.912638
vt 1.000000 0.833333
vt 0.833333 0.833333
vt 1.000000 0.916667
vt 1.000000 0.833333
vt 0.833333 0.916667
vt 1.000000 0.916667
vt 0.833333 0.833333
vt 0.833333 0.916667
vt 0.916667 0.916667
vt 0.916667 0.916667
vt 0.916667 0.912638
vt 0.916667 0.837362
vt 0.916667 0.833333
vt 0.916667 0.833333
vn -0.707107 0.000000 0.707106
vn -0.707107 0.000000 0.707106
vn -0.707107 0.000000 0.707106
vn -0.707107 0.000000 0.707106
vn 0.000000 -0.707108 0.707105
vn 0.000000 -0.707108 0.707105
vn 0.000000 -0.707108 0.707105
vn 0.000000 -0.707108 0.707105
vn 0.707107 0.000000 0.707106
vn 0.707107 0.000000 0.707106
vn 0.707107 0.000000 0.707106
vn 0.707107 0.000000 0.707106
vn 0.000000 0.707105 0.707108
vn 0.000000 0.707105 0.707108
vn 0.000000 0.707105 0.707109
vn 0.000000 0.707105 0.707109
vn 0.000000 0.000000 1.000000
vn 0.000000 0.000000 1.000000
vn 0.000000 0.000000 1.000000
vn 0.000000 0.000000 1.000000
vn 0.000000 -1.000000 0.000000
vn 0.000000 -1.000000 0.000000
vn 0.000000 -1.000000 0.000000
vn 0.000000 -1.000000 0.000000
vn 1.000000 0.000000 0.000000
vn 1.000000 0.000000 0.000000
vn 1.000000 0.000000 0.000000
vn 1.000000 0.000000 0.000000
vn 0.000000 1.000000 0.000000
vn 0.000000 1.000000 0.000000
vn 0.000000 1.000000 0.000000
vn 0.000000 1.000000 0.000000
vn -1.000000 0.000000 0.000000
vn -1.000000 0.000000 0.000000
vn -1.000000 0.000000 0.000000
vn -1.000000 0.000000 0.000000
vn 0.000000 1.000000 0.000000
vn 0.000000 1.000000 0.000000
vn 0.000000 0.707105 0.707109
vn 0.000000 0.707105 0.707109
vn 0.000000 0.000000 1.000000
vn 0.000000 0.000000 1.000000
vn 0.000000 -0.707108 0.707105
vn 0.000000 -0.707108 0.707105
vn 0.000000 -1.000000 0.000000
vn 0.000000 -1.000000 0.000000
s off
g polySurface69 Trim_E
usemtl initialShadingGroup
f 5/6/1 6/2/2 11/1/3 12/12/4
s 1
f 16/16/5 17/17/6 8/8/7 7/3/8
s off
f 7/3/9 8/8/10 10/10/11 9/4/12
s 2
f 9/4/13 10/10/14 14/14/15 15/15/16
s 3
f 15/15/17 16/16/18 7/3/19 9/4/20
s 4
f 17/17/21 18/18/22 1/5/23 8/8/24
s off
f 1/5/25 2/7/26 10/10/27 8/8/28
s 5
f 2/7/29 13/13/30 14/14/31 10/10/32
s off
f 3/9/33 4/11/34 5/6/35 12/12/36
s 5
f 14/14/31 13/13/30 3/9/37 12/12/38
s 2
f 15/15/16 14/14/15 12/12/39 11/1/40
s 3
f 6/2/41 16/16/18 15/15/17 11/1/42
s 1
f 6/2/43 5/6/44 17/17/6 16/16/5
s 4
f 4/11/45 18/18/22 17/17/21 5/6/46
g default
v 133.333313 166.666656 0.000000
v 133.333313 133.333328 0.000000
v 66.666656 166.666656 0.000000
v 66.666656 133.333328 0.000000
v 66.666656 133.333328 6.446494
v 68.278076 134.944748 8.057916
v 131.721893 134.944748 8.057916
v 133.333313 133.333328 6.446494
v 131.721893 165.055237 8.057916
v 133.333313 166.666656 6.446494
v 68.278076 165.055237 8.057916
v 66.666656 166.666656 6.446494
v 99.999985 166.666656 0.000000
v 99.999985 166.666656 6.446494
v 99.999985 165.055237 8.057916
v 99.999985 134.944748 8.057916
v 99.999985 133.333328 6.446494
v 99.999985 133.333328 0.000000
vt 0.670695 0.912638
vt 0.670695 0.837362
vt 0.829305 0.837362
vt 0.829305 0.912638
vt 0.833333 0.833333
vt 0.666667 0.833333
vt 0.833333 0.916667
vt 0.833333 0.833333
vt 0.666667 0.916667
vt 0.833333 0.916667
vt 0.666667 0.833333
vt 0.666667 0.916667
vt 0.750000 0.916667
vt 0.750000 0.916667
vt 0.750000 0.912638
vt 0.750000 0.837362
vt 0.750000 0.833333
vt 0.750000 0.833333
vn -0.707107 0.000000 0.707106
vn -0.707107 0.000000 0.707106
vn -0.707107 0.000000 0.707106
vn -0.707107 0.000000 0.707106
vn 0.000000 -0.707105 0.707109
vn 0.000000 -0.707105 0.707109
vn 0.000000 -0.707105 0.707109
vn 0.000000 -0.707105 0.707109
vn 0.707107 0.000000 0.707106
vn 0.707107 0.000000 0.707106
vn 0.707107 0.000000 0.707106
vn 0.707107 0.000000 0.707106
vn 0.000000 0.707108 0.707105
vn 0.000000 0.707108 0.707105
vn 0.000000 0.707108 0.707105
vn 0.000000 0.707108 0.707105
vn 0.000000 0.000000 1.000000
vn 0.000000 0.000000 1.000000
vn 0.000000 0.000000 1.000000
vn 0.000000 0.000000 1.000000
vn 0.000000 -1.000000 0.000000
vn 0.000000 -1.000000 0.000000
vn 0.000000 -1.000000 0.000000
vn 0.000000 -1.000000 0.000000
vn 1.000000 0.000000 0.000000
vn 1.000000 0.000000 0.000000
vn 1.000000 0.000000 0.000000
vn 1.000000 0.000000 0.000000
vn 0.000000 1.000000 0.000000
vn 0.000000 1.000000 0.000000
vn 0.000000 1.000000 0.000000
vn 0.000000 1.000000 0.000000
vn -1.000000 0.000000 0.000000
vn -1.000000 0.000000 0.000000
vn -1.000000 0.000000 0.000000
vn -1.000000 0.000000 0.000000
vn 0.000000 1.000000 0.000000
vn 0.000000 1.000000 0.000000
vn 0.000000 0.707108 0.707106
vn 0.000000 0.707108 0.707106
vn 0.000000 0.000000 1.000000
vn 0.000000 0.000000 1.000000
vn 0.000000 -0.707105 0.707109
vn 0.000000 -0.707105 0.707109
vn 0.000000 -1.000000 0.000000
vn 0.000000 -1.000000 0.000000
s off
g Trim_E polySurface71 polySurface70
usemtl initialShadingGroup
f 23/24/47 24/20/48 29/19/49 30/30/50
s 1
f 34/34/51 35/35/52 26/26/53 25/21/54
s off
f 25/21/55 26/26/56 28/28/57 27/22/58
s 2
f 27/22/59 28/28/60 32/32/61 33/33/62
s 3
f 33/33/63 34/34/64 25/21/65 27/22/66
s 4
f 35/35/67 36/36/68 20/23/69 26/26/70
s off
f 20/23/71 19/25/72 28/28/73 26/26/74
s 5
f 19/25/75 31/31/76 32/32/77 28/28/78
s off
f 21/27/79 22/29/80 23/24/81 30/30/82
s 5
f 32/32/77 31/31/76 21/27/83 30/30/84
s 2
f 33/33/62 32/32/61 30/30/85 29/19/86
s 3
f 24/20/87 34/34/64 33/33/63 29/19/88
s 1
f 24/20/89 23/24/90 35/35/52 34/34/51
s 4
f 22/29/91 36/36/68 35/35/67 23/24/92
g default
v 66.666656 166.666656 0.000000
v 66.666656 133.333328 0.000000
v -0.000008 166.666656 0.000000
v -0.000008 133.333328 0.000000
v -0.000008 133.333328 6.446494
v 1.611414 134.944748 8.057916
v 65.055237 134.944748 8.057916
v 66.666656 133.333328 6.446494
v 65.055237 165.055237 8.057916
v 66.666656 166.666656 6.446494
v 1.611414 165.055237 8.057916
v -0.000008 166.666656 6.446494
v 33.333324 166.666656 0.000000
v 33.333324 166.666656 6.446494
v 33.333324 165.055237 8.057916
v 33.333324 134.944748 8.057916
v 33.333324 133.333328 6.446494
v 33.333324 133.333328 0.000000
vt 0.504029 0.912638
vt 0.504029 0.837362
vt 0.662638 0.837362
vt 0.662638 0.912638
vt 0.666667 0.833333
vt 0.500000 0.833333
vt 0.666667 0.916667
vt 0.666667 0.833333
vt 0.500000 0.916667
vt 0.666667 0.916667
vt 0.500000 0.833333
vt 0.500000 0.916667
vt 0.583333 0.916667
vt 0.583333 0.916667
vt 0.583333 0.912638
vt 0.583333 0.837362
vt 0.583333 0.833333
vt 0.583333 0.833333
vn -0.707107 0.000000 0.707107
vn -0.707107 0.000000 0.707107
vn -0.707107 0.000000 0.707107
vn -0.707107 0.000000 0.707107
vn 0.000000 -0.707108 0.707105
vn 0.000000 -0.707108 0.707105
vn 0.000000 -0.707108 0.707105
vn 0.000000 -0.707108 0.707105
vn 0.707107 0.000000 0.707106
vn 0.707107 0.000000 0.707106
vn 0.707107 0.000000 0.707106
vn 0.707107 0.000000 0.707106
vn 0.000000 0.707105 0.707109
vn 0.000000 0.707105 0.707109
vn 0.000000 0.707106 0.707107
vn 0.000000 0.707106 0.707107
vn 0.000000 0.000000 1.000000
vn 0.000000 0.000000 1.000000
vn 0.000000 0.000000 1.000000
vn 0.000000 0.000000 1.000000
vn 0.000000 -1.000000 0.000000
vn 0.000000 -1.000000 0.000000
vn 0.000000 -1.000000 0.000000
vn 0.000000 -1.000000 0.000000
vn 1.000000 0.000000 0.000000
vn 1.000000 0.000000 0.000000
vn 1.000000 0.000000 0.000000
vn 1.000000 0.000000 0.000000
vn 0.000000 1.000000 0.000000
vn 0.000000 1.000000 0.000000
vn 0.000000 1.000000 0.000000
vn 0.000000 1.000000 0.000000
vn -1.000000 0.000000 0.000000
vn -1.000000 0.000000 0.000000
vn -1.000000 0.000000 0.000000
vn -1.000000 0.000000 0.000000
vn 0.000000 1.000000 0.000000
vn 0.000000 1.000000 0.000000
vn 0.000000 0.707108 0.707105
vn 0.000000 0.707108 0.707105
vn 0.000000 0.000000 1.000000
vn 0.000000 0.000000 1.000000
vn 0.000000 -0.707108 0.707105
vn 0.000000 -0.707108 0.707105
vn 0.000000 -1.000000 0.000000
vn 0.000000 -1.000000 0.000000
s off
g Trim_E polySurface70 polySurface73 polySurface72
usemtl initialShadingGroup
f 41/42/93 42/38/94 47/37/95 48/48/96
s 1
f 52/52/97 53/53/98 44/44/99 43/39/100
s off
f 43/39/101 44/44/102 46/46/103 45/40/104
s 2
f 45/40/105 46/46/106 50/50/107 51/51/108
s 3
f 51/51/109 52/52/110 43/39/111 45/40/112
s 4
f 53/53/113 54/54/114 38/41/115 44/44/116
s off
f 38/41/117 37/43/118 46/46/119 44/44/120
s 5
f 37/43/121 49/49/122 50/50/123 46/46/124
s off
f 39/45/125 40/47/126 41/42/127 48/48/128
s 5
f 50/50/123 49/49/122 39/45/129 48/48/130
s 2
f 51/51/108 50/50/107 48/48/131 47/37/132
s 3
f 42/38/133 52/52/110 51/51/109 47/37/134
s 1
f 42/38/135 41/42/136 53/53/98 52/52/97
s 4
f 40/47/137 54/54/114 53/53/113 41/42/138
g default
v -0.000008 166.666656 0.000000
v -0.000008 133.333328 0.000000
v -66.666679 166.666656 0.000000
v -66.666679 133.333328 0.000000
v -66.666679 133.333328 6.446494
v -65.055260 134.944748 8.057916
v -1.611430 134.944748 8.057916
v -0.000008 133.333328 6.446494
v -1.611430 165.055237 8.057916
v -0.000008 166.666656 6.446494
v -65.055260 165.055237 8.057916
v -66.666679 166.666656 6.446494
v -33.333344 166.666656 0.000000
v -33.333344 166.666656 6.446494
v -33.333344 165.055237 8.057916
v -33.333344 134.944748 8.057916
v -33.333344 133.333328 6.446494
v -33.333344 133.333328 0.000000
vt 0.337362 0.912638
vt 0.337362 0.837362
vt 0.495971 0.837362
vt 0.495971 0.912638
vt 0.500000 0.833333
vt 0.333333 0.833333
vt 0.500000 0.916667
vt 0.500000 0.833333
vt 0.333333 0.916667
vt 0.500000 0.916667
vt 0.333333 0.833333
vt 0.333333 0.916667
vt 0.416667 0.916667
vt 0.416667 0.916667
vt 0.416667 0.912638
vt 0.416667 0.837362
vt 0.416667 0.833333
vt 0.416667 0.833333
vn -0.707107 0.000000 0.707106
vn -0.707107 0.000000 0.707106
vn -0.707107 0.000000 0.707106
vn -0.707107 0.000000 0.707106
vn 0.000000 -0.707108 0.707105
vn 0.000000 -0.707108 0.707105
vn 0.000000 -0.707108 0.707105
vn 0.000000 -0.707108 0.707105
vn 0.707107 0.000000 0.707107
vn 0.707107 0.000000 0.707107
vn 0.707107 0.000000 0.707107
vn 0.707107 0.000000 0.707107
vn 0.000000 0.707108 0.707105
vn 0.000000 0.707108 0.707105
vn 0.000000 0.707107 0.707107
vn 0.000000 0.707107 0.707107
vn 0.000000 0.000000 1.000000
vn 0.000000 0.000000 1.000000
vn 0.000000 0.000000 1.000000
vn 0.000000 0.000000 1.000000
vn 0.000000 -1.000000 0.000000
vn 0.000000 -1.000000 0.000000
vn 0.000000 -1.000000 0.000000
vn 0.000000 -1.000000 0.000000
vn 1.000000 0.000000 0.000000
vn 1.000000 0.000000 0.000000
vn 1.000000 0.000000 0.000000
vn 1.000000 0.000000 0.000000
vn 0.000000 1.000000 0.000000
vn 0.000000 1.000000 0.000000
vn 0.000000 1.000000 0.000000
vn 0.000000 1.000000 0.000000
vn -1.000000 0.000000 0.000000
vn -1.000000 0.000000 0.000000
vn -1.000000 0.000000 0.000000
vn -1.000000 0.000000 0.000000
vn 0.000000 1.000000 0.000000
vn 0.000000 1.000000 0.000000
vn 0.000000 0.707105 0.707109
vn 0.000000 0.707105 0.707109
vn 0.000000 0.000000 1.000000
vn 0.000000 0.000000 1.000000
vn 0.000000 -0.707108 0.707105
vn 0.000000 -0.707108 0.707105
vn 0.000000 -1.000000 0.000000
vn 0.000000 -1.000000 0.000000
s off
g Trim_E polySurface70 polySurface72 polySurface75 polySurface74
usemtl initialShadingGroup
f 59/60/139 60/56/140 65/55/141 66/66/142
s 1
f 70/70/143 71/71/144 62/62/145 61/57/146
s off
f 61/57/147 62/62/148 64/64/149 63/58/150
s 2
f 63/58/151 64/64/152 68/68/153 69/69/154
s 3
f 69/69/155 70/70/156 61/57/157 63/58/158
s 4
f 71/71/159 72/72/160 56/59/161 62/62/162
s off
f 56/59/163 55/61/164 64/64/165 62/62/166
s 5
f 55/61/167 67/67/168 68/68/169 64/64/170
s off
f 57/63/171 58/65/172 59/60/173 66/66/174
s 5
f 68/68/169 67/67/168 57/63/175 66/66/176
s 2
f 69/69/154 68/68/153 66/66/177 65/55/178
s 3
f 60/56/179 70/70/156 69/69/155 65/55/180
s 1
f 60/56/181 59/60/182 71/71/144 70/70/143
s 4
f 58/65/183 72/72/160 71/71/159 59/60/184
g default
v -66.666679 166.666656 0.000000
v -66.666679 133.333328 0.000000
v -133.333344 166.666656 0.000000
v -133.333344 133.333328 0.000000
v -133.333344 133.333328 6.446494
v -131.721924 134.944748 8.057916
v -68.278099 134.944748 8.057916
v -66.666679 133.333328 6.446494
v -68.278099 165.055237 8.057916
v -66.666679 166.666656 6.446494
v -131.721924 165.055237 8.057916
v -133.333344 166.666656 6.446494
v -100.000015 166.666656 0.000000
v -100.000015 166.666656 6.446494
v -100.000015 165.055237 8.057916
v -100.000015 134.944748 8.057916
v -100.000015 133.333328 6.446494
v -100.000015 133.333328 0.000000
vt 0.170695 0.912638
vt 0.170695 0.837362
vt 0.329305 0.837362
vt 0.329305 0.912638
vt 0.333333 0.833333
vt 0.166667 0.833333
vt 0.333333 0.916667
vt 0.333333 0.833333
vt 0.166667 0.916667
vt 0.333333 0.916667
vt 0.166667 0.833333
vt 0.166667 0.916667
vt 0.250000 0.916667
vt 0.250000 0.916667
vt 0.250000 0.912638
vt 0.250000 0.837362
vt 0.250000 0.833333
vt 0.250000 0.833333
vn -0.707107 0.000000 0.707106
vn -0.707107 0.000000 0.707106
vn -0.707107 0.000000 0.707106
vn -0.707107 0.000000 0.707106
vn 0.000000 -0.707106 0.707107
vn 0.000000 -0.707106 0.707107
vn 0.000000 -0.707108 0.707105
vn 0.000000 -0.707108 0.707105
vn 0.707107 0.000000 0.707106
vn 0.707107 0.000000 0.707106
vn 0.707107 0.000000 0.707106
vn 0.707107 0.000000 0.707106
vn 0.000000 0.707105 0.707109
vn 0.000000 0.707105 0.707109
vn 0.000000 0.707106 0.707107
vn 0.000000 0.707106 0.707107
vn 0.000000 0.000000 1.000000
vn 0.000000 0.000000 1.000000
vn 0.000000 0.000000 1.000000
vn 0.000000 0.000000 1.000000
vn 0.000000 -1.000000 0.000000
vn 0.000000 -1.000000 0.000000
vn 0.000000 -1.000000 0.000000
vn 0.000000 -1.000000 0.000000
vn 1.000000 0.000000 0.000000
vn 1.000000 0.000000 0.000000
vn 1.000000 0.000000 0.000000
vn 1.000000 0.000000 0.000000
vn 0.000000 1.000000 0.000000
vn 0.000000 1.000000 0.000000
vn 0.000000 1.000000 0.000000
vn 0.000000 1.000000 0.000000
vn -1.000000 0.000000 0.000000
vn -1.000000 0.000000 0.000000
vn -1.000000 0.000000 0.000000
vn -1.000000 0.000000 0.000000
vn 0.000000 1.000000 0.000000
vn 0.000000 1.000000 0.000000
vn 0.000000 0.707108 0.707105
vn 0.000000 0.707108 0.707105
vn 0.000000 0.000000 1.000000
vn 0.000000 0.000000 1.000000
vn 0.000000 -0.707105 0.707109
vn 0.000000 -0.707105 0.707109
vn 0.000000 -1.000000 0.000000
vn 0.000000 -1.000000 0.000000
s off
g Trim_E polySurface70 polySurface72 polySurface74 polySurface77 polySurface76
usemtl initialShadingGroup
f 77/78/185 78/74/186 83/73/187 84/84/188
s 1
f 88/88/189 89/89/190 80/80/191 79/75/192
s off
f 79/75/193 80/80/194 82/82/195 81/76/196
s 2
f 81/76/197 82/82/198 86/86/199 87/87/200
s 3
f 87/87/201 88/88/202 79/75/203 81/76/204
s 4
f 89/89/205 90/90/206 74/77/207 80/80/208
s off
f 74/77/209 73/79/210 82/82/211 80/80/212
s 5
f 73/79/213 85/85/214 86/86/215 82/82/216
s off
f 75/81/217 76/83/218 77/78/219 84/84/220
s 5
f 86/86/215 85/85/214 75/81/221 84/84/222
s 2
f 87/87/200 86/86/199 84/84/223 83/73/224
s 3
f 78/74/225 88/88/202 87/87/201 83/73/226
s 1
f 78/74/227 77/78/228 89/89/190 88/88/189
s 4
f 76/83/229 90/90/206 89/89/205 77/78/230
g default
v -200.000000 133.333328 0.000000
v -200.000000 166.666656 0.000000
v -133.333344 166.666656 0.000000
v -133.333344 133.333328 0.000000
v -200.000000 133.333328 6.446494
v -198.388580 134.944748 8.057916
v -134.944763 134.944748 8.057916
v -133.333344 133.333328 6.446494
v -134.944763 165.055237 8.057916
v -133.333344 166.666656 6.446494
v -198.388580 165.055237 8.057916
v -200.000000 166.666656 6.446494
v -166.666672 166.666656 0.000000
v -166.666672 166.666656 6.446494
v -166.666672 165.055237 8.057916
v -166.666672 134.944748 8.057916
v -166.666672 133.333328 6.446494
v -166.666672 133.333328 0.000000
vt 0.004029 0.912638
vt 0.004029 0.837362
vt 0.162638 0.837362
vt 0.162638 0.912638
vt 0.166667 0.833333
vt 0.000000 0.833333
vt 0.166667 0.916667
vt 0.166667 0.833333
vt 0.000000 0.916667
vt 0.166667 0.916667
vt 0.000000 0.833333
vt 0.000000 0.916667
vt 0.083333 0.916667
vt 0.083333 0.916667
vt 0.083333 0.912638
vt 0.083333 0.837362
vt 0.083333 0.833333
vt 0.083333 0.833333
vn -0.707107 0.000000 0.707106
vn -0.707107 0.000000 0.707106
vn -0.707107 0.000000 0.707106
vn -0.707107 0.000000 0.707106
vn 0.000000 -0.707105 0.707109
vn 0.000000 -0.707105 0.707109
vn 0.000000 -0.707105 0.707109
vn 0.000000 -0.707105 0.707109
vn 0.707107 0.000000 0.707106
vn 0.707107 0.000000 0.707106
vn 0.707107 0.000000 0.707106
vn 0.707107 0.000000 0.707106
vn 0.000000 0.707108 0.707106
vn 0.000000 0.707108 0.707106
vn 0.000000 0.707108 0.707105
vn 0.000000 0.707108 0.707105
vn 0.000000 0.000000 1.000000
vn 0.000000 0.000000 1.000000
vn 0.000000 0.000000 1.000000
vn 0.000000 0.000000 1.000000
vn 0.000000 -1.000000 0.000000
vn 0.000000 -1.000000 0.000000
vn 0.000000 -1.000000 0.000000
vn 0.000000 -1.000000 0.000000
vn 1.000000 0.000000 0.000000
vn 1.000000 0.000000 0.000000
vn 1.000000 0.000000 0.000000
vn 1.000000 0.000000 0.000000
vn 0.000000 1.000000 0.000000
vn 0.000000 1.000000 0.000000
vn 0.000000 1.000000 0.000000
vn 0.000000 1.000000 0.000000
vn -1.000000 0.000000 0.000000
vn -1.000000 0.000000 0.000000
vn -1.000000 0.000000 0.000000
vn -1.000000 0.000000 0.000000
vn 0.000000 1.000000 0.000000
vn 0.000000 1.000000 0.000000
vn 0.000000 0.707108 0.707105
vn 0.000000 0.707108 0.707105
vn 0.000000 0.000000 1.000000
vn 0.000000 0.000000 1.000000
vn 0.000000 -0.707105 0.707109
vn 0.000000 -0.707105 0.707109
vn 0.000000 -1.000000 0.000000
vn 0.000000 -1.000000 0.000000
s off
g Trim_E polySurface70 polySurface72 polySurface74 polySurface76 polySurface78
usemtl initialShadingGroup
f 95/96/231 96/92/232 101/91/233 102/102/234
s 1
f 106/106/235 107/107/236 98/98/237 97/93/238
s off
f 97/93/239 98/98/240 100/100/241 99/94/242
s 2
f 99/94/243 100/100/244 104/104/245 105/105/246
s 3
f 105/105/247 106/106/248 97/93/249 99/94/250
s 4
f 107/107/251 108/108/252 94/95/253 98/98/254
s off
f 94/95/255 93/97/256 100/100/257 98/98/258
s 5
f 93/97/259 103/103/260 104/104/261 100/100/262
s off
f 92/99/263 91/101/264 95/96/265 102/102/266
s 5
f 104/104/261 103/103/260 92/99/267 102/102/268
s 2
f 105/105/246 104/104/245 102/102/269 101/91/270
s 3
f 96/92/271 106/106/248 105/105/247 101/91/272
s 1
f 96/92/273 95/96/274 107/107/236 106/106/235
s 4
f 91/101/275 108/108/252 107/107/251 95/96/276
